<svg id="Layer_1" data-name="Layer 1" xmlns="http://www.w3.org/2000/svg" viewBox="0 0 501.55 93.95"><defs><style>.cls-1{fill:#fff;}</style></defs><title>moh-logo-footer</title><polygon class="cls-1" points="394.71 89.73 390.49 89.73 390.49 81.3 386.28 81.3 386.28 89.73 386.28 89.73 386.28 93.95 386.28 93.95 390.49 93.95 394.71 93.95 397.66 93.95 398.93 93.95 398.93 81.3 394.71 81.3 394.71 89.73"/><rect class="cls-1" x="394.71" y="72.86" width="4.22" height="4.21"/><polygon class="cls-1" points="432.63 3.29 430.53 1.19 428.43 3.29 428.43 68.64 432.63 68.64 432.63 3.29"/><polygon class="cls-1" points="441.07 18.38 436.85 14.16 436.85 68.65 441.07 68.65 441.07 18.38"/><polygon class="cls-1" points="462.15 68.7 466.37 68.7 466.37 56.26 462.15 52.04 462.15 68.7"/><polygon class="cls-1" points="424.19 13.88 419.97 18.1 419.97 68.64 424.19 68.64 424.19 13.88"/><polygon class="cls-1" points="415.76 26.51 411.54 30.73 411.54 68.65 415.76 68.65 415.76 26.51"/><polygon class="cls-1" points="394.71 68.64 398.93 68.64 398.93 52 394.71 56.22 394.71 68.64"/><polygon class="cls-1" points="390.5 64.11 386.28 68.32 386.28 77.08 390.5 77.08 390.5 64.11"/><polygon class="cls-1" points="377.85 89.73 363.75 89.73 359.53 93.94 377.85 93.94 382.07 93.94 382.07 89.73 382.07 77.08 377.85 81.28 377.85 89.73"/><polygon class="cls-1" points="470.58 72.81 470.58 74.97 470.58 93.95 474.8 93.95 474.8 74.97 474.8 68.3 470.58 64.08 470.58 72.81"/><polygon class="cls-1" points="462.15 89.73 453.72 89.73 453.72 93.95 462.15 93.95 465.1 93.95 466.37 93.95 466.37 72.92 462.15 72.92 462.15 89.73"/><polygon class="cls-1" points="457.93 43.56 453.72 39.34 453.72 66.8 453.72 68.59 453.72 84.23 457.93 84.23 457.93 68.59 457.93 68.59 457.93 43.56"/><polygon class="cls-1" points="445.29 89.73 441.07 89.73 441.07 81.33 436.85 81.33 436.85 89.73 432.63 89.73 432.63 81.33 428.42 81.33 428.42 89.73 424.19 89.73 424.19 81.33 423.76 81.33 423.76 81.29 415.76 81.29 415.76 77.08 441.07 77.08 441.07 72.86 415.76 72.86 415.76 72.86 411.54 72.86 411.54 85.51 414.1 85.51 415.76 85.51 419.97 85.51 419.97 89.73 407.32 89.73 407.32 68.64 407.32 39.28 403.11 43.49 403.11 68.64 403.11 93.95 406.93 93.95 406.93 93.95 419.97 93.95 424.19 93.95 428.42 93.95 432.63 93.95 436.85 93.95 441.07 93.95 445.29 93.95 446.96 93.95 449.5 93.95 449.5 81.33 445.29 81.33 445.29 89.73"/><polygon class="cls-1" points="449.5 30.86 445.29 26.64 445.29 77.08 449.5 77.08 449.5 30.86"/><polygon class="cls-1" points="497.33 89.73 483.24 89.73 483.24 81.3 479.02 77.08 479.02 89.73 479.02 93.95 483.24 93.95 501.55 93.95 497.33 89.73"/><polygon class="cls-1" points="457.93 86.4 457.93 85.02 456.2 85.02 454.83 85.02 454.83 87.32 453.77 87.32 453.77 88.7 457.93 88.7 457.93 87.32 456.2 87.32 456.2 86.4 457.93 86.4"/><path class="cls-1" d="M26.28,42.4a15,15,0,0,1-2,.15l-2.37.09c-0.79,0-1.59.06-2.36,0.06h-2A24.46,24.46,0,0,1,14,42.43a12,12,0,0,1-3.31-1,6.65,6.65,0,0,1-2.43-2,5.21,5.21,0,0,1-1-3.25V21.66H0V36.57A12.41,12.41,0,0,0,1.55,43.1a11.72,11.72,0,0,0,4.1,4,17.89,17.89,0,0,0,5.64,2.09,33.85,33.85,0,0,0,6.32.6q1.45,0,3.51-.18c1.39-.12,2.82-0.27,4.31-0.45s2.93-.39,4.35-0.64,2.66-.47,3.71-0.72V17.56H26.28V42.4Z" transform="translate(0.01 0)"/><path class="cls-1" d="M16.6,13a4.18,4.18,0,0,0,3-1.26,4.09,4.09,0,0,0,1.3-3,4.19,4.19,0,0,0-1.3-3.13,4.32,4.32,0,0,0-6.1,0,4.27,4.27,0,0,0-1.26,3.13,4.16,4.16,0,0,0,1.26,3A4.22,4.22,0,0,0,16.6,13Z" transform="translate(0.01 0)"/><path class="cls-1" d="M125.5,31.76q0,4.27-4.1,4.27a15.06,15.06,0,0,1-2.78-.27,8.52,8.52,0,0,1-2.26-.75l0.36-1.14a6.24,6.24,0,0,0,.18-1.63V17.56h-7.27v14.2c0,2.85-1.37,4.27-4.09,4.27a12.8,12.8,0,0,1-2.5-.24,10.72,10.72,0,0,1-2.2-.66,13.92,13.92,0,0,0,.18-2.41V17.56H93.84V32.71a2.41,2.41,0,0,1-1.3,2.48,7.46,7.46,0,0,1-3.07.57H85a15,15,0,0,1-2.2-.15,9.66,9.66,0,0,1-1.9-.45,14.62,14.62,0,0,0,.24-3V28.45a11.78,11.78,0,0,0-1-4.69,7.91,7.91,0,0,0-2.5-3.08A10.63,10.63,0,0,0,73.84,19a22.49,22.49,0,0,0-5-.51H67.58l12.33-10V0L56,19.54v5.65H69.15a9.2,9.2,0,0,1,1.67.15,3.77,3.77,0,0,1,1.51.6l1.11,1.25a3.76,3.76,0,0,1,.46,2v3a3.33,3.33,0,0,1-.39,1.63l-1,1.08a4.91,4.91,0,0,1-1.55.6,9.35,9.35,0,0,1-1.83.19H52.41a7.39,7.39,0,0,1-3.06-.5,2.4,2.4,0,0,1-1.26-2.44V1.5H40.84V32.71q0,5.12,3,7.4t8.48,2.28H69.15a15.59,15.59,0,0,0,8.23-1.86,33.27,33.27,0,0,0,3.79,1.29,17.77,17.77,0,0,0,4.81.57h3.55a21.11,21.11,0,0,0,3.88-.33,11.17,11.17,0,0,0,3.16-1,32.78,32.78,0,0,0,9.32,1.38,15.63,15.63,0,0,0,4.26-.54,8.13,8.13,0,0,0,3.14-1.57,27.7,27.7,0,0,0,4,1.48,18.81,18.81,0,0,0,5.12.63,16.83,16.83,0,0,0,4.32-.51A7.79,7.79,0,0,0,130,40.19,7.65,7.65,0,0,0,132.07,37a14.93,14.93,0,0,0,.72-4.93V17.56h-7.28v14.2h0Z" transform="translate(0.01 0)"/><path class="cls-1" d="M144.27,55.46h10.12V52.19H150.2l-0.41-.89-0.13-.77a1.23,1.23,0,0,1,.56-1.22l1.32-.24,1.59,0.39,1.26,0.65V46.62a8.78,8.78,0,0,0-1.7-.83,5.28,5.28,0,0,0-1.62-.25,6.49,6.49,0,0,0-1.92.28,4.66,4.66,0,0,0-1.63.86,3.86,3.86,0,0,0-1.12,1.51,5.55,5.55,0,0,0-.42,2.24l0.11,0.85,0.25,0.91h-2.07v3.28h0Z" transform="translate(0.01 0)"/><path class="cls-1" d="M169.49,32.72V1.5h-7.2V32.72A2.41,2.41,0,0,1,161,35.19a7.5,7.5,0,0,1-3.08.57h-3.84V9.32H146.9v26.4H139v6.67h19c3.65,0,6.47-.76,8.49-2.28S169.49,36.12,169.49,32.72Z" transform="translate(0.01 0)"/><rect class="cls-1" x="175.87" y="1.51" width="7.2" height="40.9"/><path class="cls-1" d="M221.06,13.11a4.21,4.21,0,0,0,3-1.27,4.07,4.07,0,0,0,1.3-3,4.18,4.18,0,0,0-1.3-3.12,4.28,4.28,0,0,0-6.05,0l0,0a4.22,4.22,0,0,0-1.26,3.12,4.1,4.1,0,0,0,1.26,3A4.22,4.22,0,0,0,221.06,13.11Z" transform="translate(0.01 0)"/><path class="cls-1" d="M206.61,39.37a13.23,13.23,0,0,0,4.47,2.28,18.29,18.29,0,0,0,5.23.75H228.1V19.67c-0.72-.28-1.6-0.56-2.61-0.84a31.18,31.18,0,0,0-3.17-.69c-1.06-.18-2.12-0.33-3.12-0.45a19.72,19.72,0,0,0-2.46-.19,18.09,18.09,0,0,0-6.16,1,13.35,13.35,0,0,0-4.51,2.61A10.73,10.73,0,0,0,203.3,25a12.12,12.12,0,0,0-.94,4.81,13.12,13.12,0,0,0,1.15,5.69A10.73,10.73,0,0,0,206.61,39.37Zm4.52-13.81q1.81-1.62,5.6-1.62a14.06,14.06,0,0,1,2.56.21l1.59,0.33V35.73H216.3a7.74,7.74,0,0,1-5.1-1.54,5.45,5.45,0,0,1-1.86-4.39,5.38,5.38,0,0,1,1.79-4.24h0Z" transform="translate(0.01 0)"/><path class="cls-1" d="M210.23,13.11a4.24,4.24,0,0,0,3-1.27,4.09,4.09,0,0,0,1.3-3,4.2,4.2,0,0,0-1.3-3.12,4.32,4.32,0,0,0-7.37,3.12,4.09,4.09,0,0,0,1.27,3A4.2,4.2,0,0,0,210.23,13.11Z" transform="translate(0.01 0)"/><path class="cls-1" d="M245,17.56h-7.18V45.41a4,4,0,0,1-.94,3.1,3.74,3.74,0,0,1-2.56.81,8,8,0,0,1-1.85-.24,18.44,18.44,0,0,1-2-.6v6.07a17.21,17.21,0,0,0,2.27.64,12.4,12.4,0,0,0,2.66.27,10.85,10.85,0,0,0,7-2.17c1.8-1.45,2.7-3.7,2.7-6.8V17.56H245Z" transform="translate(0.01 0)"/><rect class="cls-1" x="252.17" y="1.51" width="7.22" height="40.9"/><path class="cls-1" d="M276.09,46.49V17.56h-7.25V45.41c0,1.53-.3,2.56-0.93,3.1a3.82,3.82,0,0,1-2.56.81,8.26,8.26,0,0,1-1.87-.24,18,18,0,0,1-2-.6v6.07a16.94,16.94,0,0,0,2.29.63,12.27,12.27,0,0,0,2.64.28,10.85,10.85,0,0,0,7-2.18Q276.09,51.12,276.09,46.49Z" transform="translate(0.01 0)"/><path class="cls-1" d="M272.13,13a4.19,4.19,0,0,0,3-1.26,4.09,4.09,0,0,0,1.3-3,4.19,4.19,0,0,0-1.3-3.13,4.32,4.32,0,0,0-6.1,0,4.26,4.26,0,0,0-1.27,3.13A4.32,4.32,0,0,0,272.13,13Z" transform="translate(0.01 0)"/><path class="cls-1" d="M301.16,53.19a10.61,10.61,0,0,0,3.28-3.64,11.44,11.44,0,0,0,1.29-5.71V19.67a24.51,24.51,0,0,0-2.6-.84,31,31,0,0,0-3.16-.7c-1.13-.17-2.13-0.32-3.13-0.44a21.11,21.11,0,0,0-2.45-.19,18.34,18.34,0,0,0-6.18,1,13.58,13.58,0,0,0-4.5,2.62A11,11,0,0,0,280.92,25a12.42,12.42,0,0,0-.92,4.82,13,13,0,0,0,1.15,5.68,10.68,10.68,0,0,0,3.11,3.91,13.32,13.32,0,0,0,4.47,2.28,18.11,18.11,0,0,0,5.23.76h4.51v1.2a5.32,5.32,0,0,1-1.87,4.5,7.14,7.14,0,0,1-4.5,1.45,16.06,16.06,0,0,1-4.64-.63,23,23,0,0,1-4.57-2v6.74a21.21,21.21,0,0,0,9.21,2,20.18,20.18,0,0,0,4.68-.58A12.91,12.91,0,0,0,301.16,53.19Zm-7.22-17.46a7.71,7.71,0,0,1-5.1-1.54A5.4,5.4,0,0,1,287,29.81a5.42,5.42,0,0,1,1.81-4.22q1.79-1.62,5.6-1.62a13.38,13.38,0,0,1,2.54.21l1.6,0.33V35.73h-4.57Z" transform="translate(0.01 0)"/><polygon class="cls-1" points="10.72 87.06 3.8 72 1.54 72 1.54 93.23 3.8 93.23 3.8 77.09 9.71 89.89 11.65 89.89 17.46 77.09 17.46 93.23 19.73 93.23 19.73 72 17.46 72 10.72 87.06"/><rect class="cls-1" x="25.88" y="72" width="2.26" height="21.23"/><polygon class="cls-1" points="47.7 88.97 36.43 72 34.28 72 34.28 93.23 36.54 93.23 36.54 76.2 47.84 93.23 49.97 93.23 49.97 72 47.7 72 47.7 88.97"/><rect class="cls-1" x="56.13" y="72" width="2.26" height="21.23"/><path class="cls-1" d="M75.52,83.19a6.9,6.9,0,0,0-3.87-1.49l-2.32-.36a6.07,6.07,0,0,1-2.88-1.15,3.07,3.07,0,0,1-1-2.44c0-2.36,1.66-3.94,4.48-3.94a6.71,6.71,0,0,1,4.95,1.83l1.46-1.47A8.55,8.55,0,0,0,70,71.84c-4.19,0-6.79,2.39-6.79,6a5,5,0,0,0,1.61,4,7.77,7.77,0,0,0,3.92,1.62l2.46,0.38a4.58,4.58,0,0,1,2.78,1,3.41,3.41,0,0,1,1,2.65c0,2.48-1.91,3.94-5,3.94a7.27,7.27,0,0,1-5.77-2.32l-1.55,1.54a9.21,9.21,0,0,0,7.27,2.8c4.4,0,7.33-2.3,7.33-6A5.32,5.32,0,0,0,75.52,83.19Z" transform="translate(0.01 0)"/><polygon class="cls-1" points="79.9 74.02 86.03 74.02 86.03 93.23 88.3 93.23 88.3 74.02 94.45 74.02 94.45 72 79.9 72 79.9 74.02"/><path class="cls-1" d="M112.84,77.9c0-3.67-2.6-5.91-6.3-5.91H98.41v21.2h2.26V83.8h5.09l4.84,9.39h2.65l-5-9.63A5.51,5.51,0,0,0,112.84,77.9Zm-12.17,3.9V74h5.67c2.47,0,4.23,1.31,4.23,3.91s-1.76,3.87-4.23,3.87h-5.67Z" transform="translate(0.01 0)"/><polygon class="cls-1" points="122.6 82.16 117.61 72 115.14 72 121.47 84.46 121.47 93.23 123.75 93.23 123.75 84.46 130 72 127.56 72 122.6 82.16"/><path class="cls-1" d="M147.35,71.81A7.49,7.49,0,0,0,141.93,74c-2,2-2,4.09-2,8.59s0,6.6,2,8.59a7.79,7.79,0,0,0,10.85,0c2-2,2-4.08,2-8.59s0-6.59-2-8.59A7.49,7.49,0,0,0,147.35,71.81Zm3.66,18a5.19,5.19,0,0,1-7.34,0h0c-1.33-1.37-1.48-2.8-1.48-7.25s0.14-5.88,1.48-7.25a5.21,5.21,0,0,1,7.34,0c1.36,1.37,1.5,2.8,1.5,7.25s-0.14,5.92-1.49,7.3v0Z" transform="translate(0.01 0)"/><polygon class="cls-1" points="160.13 93.23 162.39 93.23 162.39 83.86 171.72 83.86 171.72 81.84 162.39 81.84 162.39 74.02 173.31 74.02 173.31 72 160.13 72 160.13 93.23"/><polygon class="cls-1" points="197.2 81.5 187.12 81.5 187.12 72 184.86 72 184.86 93.23 187.12 93.23 187.12 83.54 197.2 83.54 197.2 93.23 199.48 93.23 199.48 72 197.2 72 197.2 81.5"/><path class="cls-1" d="M212.23,71.81A7.51,7.51,0,0,0,206.84,74c-2,2-2,4.09-2,8.59s0,6.6,2,8.59a7.81,7.81,0,0,0,10.87,0c2-2,2-4.08,2-8.59s0-6.59-2-8.59A7.52,7.52,0,0,0,212.23,71.81Zm3.67,18a5.19,5.19,0,0,1-7.34,0h0c-1.35-1.37-1.51-2.8-1.51-7.25s0.16-5.88,1.51-7.25a5.21,5.21,0,0,1,7.34,0c1.34,1.37,1.49,2.8,1.49,7.25s-0.15,5.92-1.49,7.3v0Z" transform="translate(0.01 0)"/><path class="cls-1" d="M237.26,86a5,5,0,0,1-4.64,5.33h-0.53C229,91.38,227,89.26,227,86V72h-2.27V86.19a7,7,0,0,0,6.81,7.19h0.58c4.3,0,7.43-2.95,7.43-7.18V72h-2.26V86Z" transform="translate(0.01 0)"/><path class="cls-1" d="M256.37,83.19a7,7,0,0,0-3.87-1.49l-2.33-.36a6,6,0,0,1-2.87-1.15,3.09,3.09,0,0,1-1-2.44c0-2.36,1.63-3.94,4.48-3.94a6.65,6.65,0,0,1,4.94,1.83l1.46-1.47a8.55,8.55,0,0,0-6.33-2.33c-4.19,0-6.78,2.39-6.78,6a5,5,0,0,0,1.6,4,7.77,7.77,0,0,0,3.91,1.62l2.49,0.38a4.61,4.61,0,0,1,2.77,1,3.43,3.43,0,0,1,1,2.65c0,2.48-1.91,3.94-5,3.94a7.31,7.31,0,0,1-5.78-2.32l-1.56,1.54a9.29,9.29,0,0,0,7.29,2.8c4.41,0,7.33-2.3,7.33-6A5.36,5.36,0,0,0,256.37,83.19Z" transform="translate(0.01 0)"/><rect class="cls-1" x="262.93" y="72" width="2.26" height="21.23"/><polygon class="cls-1" points="284.75 88.97 273.49 72 271.33 72 271.33 93.23 273.6 93.23 273.6 76.2 284.87 93.23 287.02 93.23 287.02 72 284.75 72 284.75 88.97"/><path class="cls-1" d="M299.77,84.1H305v1.62a5.56,5.56,0,0,1-1.15,3.83,5.33,5.33,0,0,1-7.52.51l-0.2-.18c-1.32-1.37-1.47-2.83-1.47-7.28s0.15-5.88,1.47-7.26a5.25,5.25,0,0,1,3.68-1.51,5.1,5.1,0,0,1,5.13,4.36h2.27a7.25,7.25,0,0,0-7.44-6.35A7.5,7.5,0,0,0,294.34,74c-2,2-2,4.08-2,8.59s0,6.59,2,8.59a7.78,7.78,0,0,0,11-.16l0.09-.09c1.31-1.4,1.81-3,1.81-5.49V82.1h-7.48v2h0Z" transform="translate(0.01 0)"/></svg>